<?xml version="1.0" encoding="UTF-8"?>
<svg xmlns="http://www.w3.org/2000/svg" viewBox="0 0 256 256">
  <defs>
    <linearGradient id="bg" x1="0" y1="0" x2="1" y2="1">
      <stop offset="0" stop-color="#22243a"/>
      <stop offset="1" stop-color="#0e0f17"/>
    </linearGradient>
    <linearGradient id="p" x1="0.1" y1="0.05" x2="0.9" y2="0.95">
      <stop offset="0" stop-color="#c4a7ff"/>
      <stop offset="0.55" stop-color="#dcb1f0"/>
      <stop offset="1" stop-color="#f5b8e2"/>
    </linearGradient>
    <linearGradient id="border" x1="0" y1="0" x2="0" y2="1">
      <stop offset="0" stop-color="#3a3a55" stop-opacity="0.85"/>
      <stop offset="1" stop-color="#181927" stop-opacity="0.35"/>
    </linearGradient>
    <linearGradient id="shine" x1="0" y1="0" x2="0" y2="1">
      <stop offset="0" stop-color="#ffffff" stop-opacity="0.06"/>
      <stop offset="0.5" stop-color="#ffffff" stop-opacity="0"/>
    </linearGradient>
  </defs>

  <rect x="6" y="6" width="244" height="244" rx="56" fill="url(#bg)"/>
  <rect x="6" y="6" width="244" height="244" rx="56" fill="url(#shine)"/>
  <rect x="6.75" y="6.75" width="242.5" height="242.5" rx="55.25"
        fill="none" stroke="url(#border)" stroke-width="1.5"/>

  <path d="M43.93 206.00 L44.14 203.81 L46.98 203.81 C51.50 203.81 55.62 203.16 59.33 201.85 C63.04 200.54 65.41 197.48 66.42 192.67 L93.30 67.05 C93.89 64.57 94.25 62.75 94.39 61.58 C94.54 60.42 94.61 59.47 94.61 58.74 C94.61 55.83 93.19 54.01 90.35 53.28 C87.51 52.55 83.76 52.19 79.10 52.19 L76.26 52.19 L76.69 50.00 L143.99 50.00 C163.80 50.00 178.76 53.64 188.89 60.92 C199.01 68.21 204.07 78.84 204.07 92.82 C204.07 98.50 203.16 104.48 201.34 110.74 C199.52 117.00 196.10 122.90 191.07 128.44 C186.05 133.98 178.84 138.49 169.44 141.99 C160.05 145.48 147.77 147.23 132.63 147.23 L120.17 147.23 L110.56 189.40 C110.13 191.29 109.76 192.89 109.47 194.20 C109.18 195.51 109.03 196.53 109.03 197.26 C109.03 200.03 110.60 201.81 113.73 202.61 C116.86 203.41 120.68 203.81 125.19 203.81 L132.41 203.81 L131.98 206.00 L43.93 206.00 Z M126.94 145.04 C132.63 145.04 137.51 142.96 141.59 138.81 C145.67 134.66 149.02 129.27 151.64 122.65 C154.26 116.02 156.19 108.81 157.43 101.02 C158.67 93.22 159.29 85.68 159.29 78.41 C159.29 68.79 158.01 62.02 155.46 58.09 C152.91 54.16 149.16 52.19 144.21 52.19 L141.14 52.19 L120.62 145.04 L126.94 145.04 Z" fill="url(#p)" fill-rule="evenodd"/>
</svg>
